<svg xmlns="http://www.w3.org/2000/svg" width="57" height="54" viewBox="0 0 57 54"><g><g><path fill="#ffc222" d="M51.09 27.181v17.097h3.017c.51 0 .923.414.923.924v3.014h1.047c.51 0 .923.413.923.923v3.938c0 .51-.413.923-.923.923H.923A.923.923 0 0 1 0 53.077v-3.938c0-.51.413-.923.923-.923H1.97v-3.014c0-.51.413-.924.923-.924H5.91V27.181a1.907 1.907 0 0 1-.985-1.668v-1.046h-2.03a.923.923 0 0 1-.924-.923V20.53H.923A.923.923 0 0 1 0 19.607v-2.953c0-.332.178-.637.465-.802L28.042.102a.923.923 0 0 1 .916 0l27.577 15.75c.287.165.465.47.465.802v2.953c0 .51-.413.923-.923.923H55.03v3.014c0 .51-.413.923-.923.923h-2.031v1.046c0 .717-.399 1.343-.985 1.668zm-.861-2.714h-4.063v1.046c0 .034.028.062.062.062h3.94a.062.062 0 0 0 .06-.062zm-4.924 19.811V27.181a1.907 1.907 0 0 1-.985-1.668v-1.046h-2.093v1.046c0 .717-.399 1.343-.985 1.668v17.097zm-5.91 0V27.42h-2.093v16.858zm-3.94 0V27.181a1.907 1.907 0 0 1-.984-1.668v-1.046h-2.093v1.046c0 .717-.398 1.343-.985 1.668v17.097zm-5.909 0V27.42h-2.093v16.858zm-3.94 0V27.181a1.907 1.907 0 0 1-.984-1.668v-1.046h-2.093v1.046c0 .717-.398 1.343-.985 1.668v17.097zm-5.908 0V27.42h-2.093v16.858zm-3.94 0V27.181a1.907 1.907 0 0 1-.985-1.668v-1.046H12.68v1.046c0 .717-.398 1.343-.985 1.668v17.097zm.862-19.81v1.045c0 .034.027.062.061.062h3.94a.062.062 0 0 0 .061-.062v-1.046zm9.849 0v1.045c0 .034.027.062.061.062h3.94a.062.062 0 0 0 .061-.062v-1.046zm9.848 0v1.045c0 .034.028.062.062.062h3.94a.062.062 0 0 0 .061-.062v-1.046zm-34.47-5.784h53.306v-1.495L28.5 1.966 1.847 17.19zm1.97 3.938h49.367V20.53H3.816zm2.954 1.845v1.046c0 .034.028.062.062.062h3.94a.062.062 0 0 0 .06-.062v-1.046zm.985 19.811h2.093V27.42H7.756zm47.397 5.784H1.847v2.092h53.306zm-1.97-3.938H3.817v2.092h49.368zm-3.94-1.846V27.42h-2.092v16.858z"/></g></g></svg>