<svg xmlns="http://www.w3.org/2000/svg" width="47" height="44" viewBox="0 0 47 44"><g><g><path fill="#ffc222" d="M47 12.43v27.46C47 42.157 45.2 44 42.99 44H4.01C1.799 44 0 42.156 0 39.89V12.43C0 10.165 1.799 8.32 4.01 8.32h11.42v-2.39a2.411 2.411 0 0 1-1.483-1.487c-.446-1.269.198-2.672 1.436-3.129C17.713.455 20.52 0 23.5 0c2.98 0 5.786.455 8.117 1.315 1.237.457 1.882 1.86 1.436 3.128A2.422 2.422 0 0 1 31.57 5.93v2.391h11.42c2.211 0 4.01 1.843 4.01 4.109zM15.38 3.915a.859.859 0 0 0 1.103.532c1.954-.722 4.446-1.119 7.017-1.119 2.571 0 5.063.397 7.016 1.12a.845.845 0 0 0 .293.052.867.867 0 0 0 .812-.586.891.891 0 0 0-.52-1.13C28.934 1.982 26.305 1.56 23.5 1.56c-2.806 0-5.434.423-7.601 1.223a.891.891 0 0 0-.52 1.132zm1.572 4.406h13.095v-2.39L30 5.914c-1.792-.662-4.1-1.027-6.5-1.027-2.4 0-4.708.365-6.5 1.027l-.048.016zM1.522 19.919c0 5.076 4.03 9.206 8.984 9.206h9.796v-.884c0-1.348 1.07-2.445 2.386-2.445h1.624c1.315 0 2.385 1.097 2.385 2.445v.884h9.796c4.954 0 8.984-4.13 8.984-9.206v-7.49c0-1.404-1.116-2.547-2.487-2.547H4.01c-1.372 0-2.487 1.143-2.487 2.548zm23.653 8.322a.875.875 0 0 0-.863-.884h-1.624a.875.875 0 0 0-.863.884v1.664c0 .488.387.884.863.884h1.624a.874.874 0 0 0 .863-.884zm-3.35 4.993c0 .487.387.884.863.884h1.624a.875.875 0 0 0 .863-.884v-1.05a2.328 2.328 0 0 1-.863.165h-1.624c-.304 0-.595-.059-.863-.165zm23.652-7.737c-1.844 3.108-5.181 5.188-8.984 5.188h-9.796v2.549c0 1.347-1.07 2.444-2.385 2.444h-1.624c-1.316 0-2.386-1.097-2.386-2.444v-2.549h-9.796c-3.802 0-7.139-2.08-8.983-5.188V39.89c0 1.405 1.115 2.548 2.487 2.548h38.98c1.371 0 2.487-1.143 2.487-2.548z"/></g></g></svg>