<svg xmlns="http://www.w3.org/2000/svg" width="63" height="54" viewBox="0 0 63 54"><g><g><path fill="#ffc222" d="M63 50.795v2.182c0 .565-.457 1.023-1.02 1.023H38.03c-.563 0-1.02-.458-1.02-1.023v-2.182a3.205 3.205 0 0 1 3.197-3.204h1.157v-1.16a3.205 3.205 0 0 1 3.198-3.204h10.885a3.205 3.205 0 0 1 3.198 3.205v1.159h1.156A3.205 3.205 0 0 1 63 50.795zm-19.594-3.204h13.199v-1.16c0-.638-.52-1.158-1.157-1.158H44.563a1.16 1.16 0 0 0-1.157 1.159zm17.553 3.204c0-.639-.519-1.159-1.157-1.159H40.208c-.637 0-1.156.52-1.156 1.16v1.158h21.907zM36.685 23.202a2.094 2.094 0 0 1-2.075-.536l-.273-.275-2.116 2.12a3.184 3.184 0 0 1-2.26.937c-.069 0-.136-.005-.204-.009L5.459 49.789a3.174 3.174 0 0 1-2.261.938 3.174 3.174 0 0 1-2.261-.938A3.187 3.187 0 0 1 0 47.523c0-.856.333-1.661.937-2.266l24.298-24.35a3.198 3.198 0 0 1 .925-2.47l2.116-2.12-.274-.274a2.102 2.102 0 0 1-.535-2.079l-2.366-2.372-.048.048a3.184 3.184 0 0 1-2.262.938 3.183 3.183 0 0 1-2.26-.938 3.186 3.186 0 0 1-.937-2.265c0-.856.333-1.661.936-2.266L26.688.938A3.174 3.174 0 0 1 28.949 0c.854 0 1.657.333 2.261.938.604.605.937 1.41.937 2.266 0 .856-.333 1.66-.937 2.266l-.048.048L33.53 7.89a2.106 2.106 0 0 1 2.074.536l6.609 6.622c.56.562.738 1.364.534 2.079l2.367 2.372.049-.049a3.174 3.174 0 0 1 2.26-.938c.855 0 1.658.333 2.262.938.604.606.936 1.41.936 2.266 0 .856-.332 1.661-.936 2.266l-6.158 6.17a3.174 3.174 0 0 1-2.261.94 3.174 3.174 0 0 1-2.261-.94 3.213 3.213 0 0 1 0-4.53l.048-.05zm9.92-2.305l-6.158 6.17a1.161 1.161 0 0 0 0 1.64c.45.452 1.185.452 1.636 0l6.157-6.171c.219-.22.34-.51.34-.82a1.153 1.153 0 0 0-1.157-1.158 1.15 1.15 0 0 0-.818.339zm-2.935.048l-2.18-2.184-3.175 3.181 2.18 2.185zm-20.06-10.75l6.157-6.172c.45-.451.45-1.187 0-1.639a1.148 1.148 0 0 0-.818-.34c-.309 0-.6.121-.818.34l-6.157 6.171a1.157 1.157 0 1 0 1.636 1.64zm2.934-.049l2.18 2.185 3.175-3.182-2.18-2.185zm1.206 14.411c-.017-.015-.035-.03-.05-.046l-1.54-1.542-.046-.05L2.38 46.702a1.15 1.15 0 0 0-.34.82c0 .31.121.6.34.82.218.218.509.339.818.339.309 0 .599-.12.817-.34zm5.144-3.612l-3.175-3.182-2.116 2.12a1.162 1.162 0 0 0 0 1.64l1.54 1.542a1.156 1.156 0 0 0 1.635 0zm3.16.274c.005.005.02.02.048.02s.043-.015.048-.02l4.619-4.628a.069.069 0 0 0 0-.097L34.16 9.872a.068.068 0 0 0-.096 0L29.445 14.5a.065.065 0 0 0-.02.048c0 .029.015.044.02.048z"/></g></g></svg>